<svg width="500" height="68" viewBox="0 0 500 68" fill="none" xmlns="http://www.w3.org/2000/svg">
<path d="M332.086 0.576904H342.068V58.2928H372.407V67.1901H332.086V0.576904Z" fill="white"/>
<path fill-rule="evenodd" clip-rule="evenodd" d="M245.126 3.20701C249.337 4.90909 253.003 7.23011 256.044 10.2474C259.086 13.2648 261.426 16.8236 263.142 20.8467C264.857 24.9472 265.715 29.3571 265.715 34.0765C265.715 38.7959 264.857 43.2832 263.142 47.3063C261.426 51.3294 259.086 54.8883 256.044 57.9056C253.003 60.8456 249.337 63.244 245.126 64.9461C240.836 66.6481 236.157 67.4992 231.165 67.4992C226.096 67.4992 221.416 66.6481 217.205 64.9461C212.993 63.244 209.328 60.9229 206.286 57.9056C203.322 54.9657 200.905 51.3294 199.189 47.3063C197.473 43.2059 196.615 38.7959 196.615 34.0765C196.615 29.3571 197.473 24.8698 199.189 20.8467C200.905 16.8236 203.244 13.2648 206.286 10.2474C209.328 7.30748 212.993 4.90909 217.205 3.20701C221.494 1.50494 226.174 0.653897 231.165 0.653897C236.235 0.653897 240.914 1.50494 245.126 3.20701ZM253.627 43.5927C254.796 40.6527 255.342 37.4033 255.342 34.0765C255.342 30.7497 254.719 27.5003 253.627 24.5604C252.535 21.6204 250.897 18.9899 248.791 16.8236C246.685 14.6574 244.19 12.8779 241.226 11.5627C238.34 10.2474 234.987 9.62849 231.321 9.62849C227.656 9.62849 224.38 10.2474 221.416 11.5627C218.531 12.8779 215.957 14.6574 213.851 16.8236C211.823 18.9899 210.186 21.6204 209.016 24.5604C207.846 27.5003 207.3 30.7497 207.3 34.0765C207.3 37.4033 207.846 40.6527 209.016 43.5927C210.108 46.5326 211.745 49.1631 213.851 51.3294C215.957 53.4957 218.453 55.2751 221.416 56.5904C224.302 57.9056 227.656 58.5246 231.321 58.5246C234.987 58.5246 238.262 57.9056 241.226 56.5904C244.112 55.2751 246.685 53.4957 248.791 51.3294C250.819 49.1631 252.457 46.5326 253.627 43.5927Z" fill="white"/>
<path d="M388.317 0.576904H378.334V67.2674H388.317V0.576904Z" fill="white"/>
<path d="M464.67 38.1V58.2928H500V67.1901H454.687V0.576904H498.284V9.5515H464.67V29.1254H496.023V38.1H464.67Z" fill="white"/>
<path d="M316.721 44.8309L271.721 0.576904V67.1901H281.079V23.4776L326.158 67.1901V0.576904H316.721V44.8309Z" fill="white"/>
<path d="M394.244 0.576904L439.323 45.1404V0.576904H448.682V66.8806L403.681 23.7871V67.1901H394.244V0.576904Z" fill="white"/>
<path fill-rule="evenodd" clip-rule="evenodd" d="M88.5977 47.9261V48.3129C88.5977 48.4677 88.5977 48.6224 88.6757 48.6998V49.0092C88.5977 52.4134 87.7398 55.276 86.102 57.597C84.3862 59.918 82.2025 61.8522 79.5508 63.2448C76.8991 64.7148 73.8574 65.7206 70.5038 66.3395C67.1502 66.9584 63.7966 67.2679 60.443 67.2679H29.2466V28.8938H29.0906C29.0906 28.8938 5.53736 27.3464 0 27.3464C0 27.3464 15.7542 26.0312 29.0906 25.7991H29.2466L29.1686 0.5H57.3234C60.599 0.5 63.8746 0.732102 67.1502 1.11894C70.4258 1.58314 73.4675 2.35681 76.1192 3.59469C78.7709 4.83256 81.0326 6.61201 82.6704 8.85566C84.3862 11.0993 85.2441 14.0393 85.2441 17.7529C85.2441 21.5439 84.0742 24.7159 81.6565 27.1917L81.0326 27.8106C81.0326 27.8106 80.7986 28.1201 80.2527 28.5843C79.6288 29.0485 79.0048 29.5127 78.0689 30.0543C77.991 30.093 77.9325 30.1316 77.874 30.1703C77.8155 30.209 77.757 30.2477 77.679 30.2864C72.7656 28.1201 67.2282 26.8822 63.1727 26.1859C65.5904 25.1801 66.6043 24.1744 66.9162 23.7875C67.0304 23.6743 67.1028 23.561 67.1946 23.4173C67.2282 23.3648 67.2644 23.3081 67.3062 23.246C67.8521 22.3176 68.1641 21.2344 68.1641 19.9965C68.1641 18.6813 67.8521 17.6755 67.2282 16.8245C66.5263 15.9734 65.7464 15.3545 64.7325 14.8903C63.6406 14.3487 62.4708 14.0393 61.1449 13.8072C59.8191 13.5751 58.4932 13.4977 57.2454 13.4977H46.0927L46.1706 26.2633H46.7166C64.8105 27.3464 77.1331 30.5958 83.2943 36.0889C83.9183 36.5531 87.1939 39.3383 88.2858 44.5993L88.4417 45.1409V45.373C88.4417 45.489 88.4612 45.6051 88.4807 45.7211C88.5002 45.8372 88.5197 45.9532 88.5197 46.0693V46.3788C88.5197 46.6495 88.5392 46.901 88.5587 47.1524C88.5782 47.4039 88.5977 47.6553 88.5977 47.9261ZM70.7378 50.1697L70.8158 50.015C71.3617 49.0092 72.6876 45.6824 69.4119 41.582C67.3062 39.1836 62.3148 35.7794 51.1621 32.8395L44.2209 31.2148L45.1568 32.2979L45.3127 32.4527C45.333 32.4928 45.369 32.5434 45.4153 32.6085C45.5474 32.7941 45.7634 33.0976 45.9367 33.6132L46.1706 34.3095C46.1772 34.3679 46.1837 34.4258 46.1902 34.4832C46.2612 35.1107 46.3266 35.6896 46.3266 36.3984C46.2486 38.4873 46.1706 48.545 46.1706 52.955V54.3476L46.7946 54.4249H60.677C61.9248 54.4249 63.2507 54.2702 64.5765 54.0381C65.9024 53.806 67.0722 53.3418 68.0861 52.7229C69.1 52.1039 69.9579 51.3303 70.6598 50.3245C70.6598 50.3245 70.7378 50.2471 70.7378 50.1697Z" fill="#EE3536"/>
<path d="M94.2911 67.2675V0.576993H139.214V14.1163H109.811V26.7271H137.654V39.6474H109.889V53.4962H140.93V67.2675H94.2911Z" fill="#EE3536"/>
<path d="M201.373 7.15321C204.102 4.52272 207.222 2.35644 210.732 0.576993H145.141V14.3484H164.015V67.2675H180.159V14.3484H195.601C197.239 11.7179 199.189 9.31949 201.373 7.15321Z" fill="#EE3536"/>
</svg>
