<?xml version="1.0" encoding="UTF-8"?>
<svg version="1.1" viewBox="0 0 2048 2048" width="768" height="768" xmlns="http://www.w3.org/2000/svg">
<path transform="translate(0)" d="m0 0h2048v2048h-2048z" fill="#03142B"/>
<path transform="translate(544,445)" d="m0 0h836l32 3 30 5 27 7 23 8 20 9 19 10 21 14 10 8 12 11 14 14 13 17 7 11 11 19 10 23 6 19 5 20 4 28 1 10v48l-4 38-12 97-9 59-5 21-6 16-8 16-7 12-9 12-11 12-9 9-14 11-1 3 12 17 12 23 8 21 5 19 3 16 2 20v22l-3 29-9 59-9 54-11 56-9 36-8 20-8 16-8 14-11 16-11 14-13 15-12 12-11 9-12 10-17 12-19 11-17 9-31 13-28 9-32 8-30 5-28 3-14 1h-838l1-15 13-107 22-181 12-100 13-107 16-132 15-123 12-100 22-181 12-99 2-13z" fill="#03142B"/>
<path transform="translate(544,445)" d="m0 0h836l32 3 30 5 27 7 23 8 20 9 19 10 21 14 10 8 12 11 14 14 13 17 7 11 11 19 10 23 6 19 5 20 4 28 1 10v48l-4 38-12 97-9 59-5 21-6 16-8 16-7 12-9 12-11 12-9 9-14 11-1 3 12 17 12 23 8 21 5 19 3 16 2 20v22l-3 29-9 59-9 54-11 56-9 36-8 20-8 16-8 14-11 16-11 14-13 15-12 12-11 9-12 10-17 12-19 11-17 9-31 13-28 9-32 8-30 5-28 3-14 1h-838l1-15 13-107 22-181 12-100 13-107 16-132 15-123 12-100 22-181 12-99 2-13zm76 87-2 6-13 107-37 305-18 148-12 100-22 182-16 131v5l3 1h716l27-2 30-4 25-5 30-9 25-10 22-11 21-14 10-8 10-9 16-16 12-16 9-15 8-16 6-15 6-20 8-37 7-41 5-32 8-59 1-10v-23l-3-21-6-20-8-16-9-14-8-10-10-11-11-9-10-8-12-8-3-6 1-8 5-5 30-10 21-10 14-10 12-11 8-10 8-14 6-16 5-23 6-40 13-108 2-22v-27l-2-22-5-25-8-24-10-19-8-12-9-11-14-14-13-10-16-10-21-10-30-10-31-6-18-2-15-1z" fill="#1CF8CD"/>
<path transform="translate(789,963)" d="m0 0h475l10 1-8 65-7 58-2 3h-301l-2 7-7 55h303l1 2-18 142-1 1h-484v-8l19-153 12-98 8-64z" fill="#1CF8CD"/>
<path transform="translate(815,752)" d="m0 0h484l1 2-8 64-10 82-2 5h-484l1-15 16-128z" fill="#1CF8CD"/>
</svg>
