<svg width="170" height="25" viewBox="0 0 170 25" fill="none" xmlns="http://www.w3.org/2000/svg">
<g clip-path="url(#clip0_808_8151)">
<path d="M41.3345 10.5156C40.0089 10.5156 27.1283 10.5104 24.512 10.5104C23.951 14.3323 25.7903 16.0614 28.3992 16.0614C29.8191 16.0614 38.7603 16.0562 38.7603 16.0562L38.4376 18.802H23.5339L22.7843 25.1582C22.7843 25.1582 39.0086 25.1633 39.6664 25.1582C40.2075 25.1169 44.0054 25.0111 45.2962 21.7827C45.7157 20.7349 46.0856 16.9775 46.1898 16.1904C46.7881 11.6098 43.7373 10.5182 41.3345 10.5182V10.5156Z" fill="#121418"/>
<path d="M84.0473 25.1582L91.7077 25.153L93.4379 10.513L85.78 10.5078L84.0473 25.1582Z" fill="#121418"/>
<path d="M22.3052 16.0614L22.9605 10.5104H2.48655L0.753906 25.1582H21.2304L21.985 18.802H9.16392L9.48662 16.0614H22.3052Z" fill="#121418"/>
<path d="M89.0268 1.24073H72.3234L71.5316 7.95299H93.7333C93.7333 7.95299 93.7606 7.71041 93.8574 6.92073C94.401 2.51557 91.668 1.24073 89.0268 1.24073Z" fill="#121418"/>
<path d="M48.3519 10.5104L46.6218 25.1582H54.2772L55.357 16.0614H64.9734C67.6989 16.0614 69.166 14.5362 69.439 12.4898C69.5756 11.4575 69.6748 10.5104 69.6748 10.5104H48.3519Z" fill="#121418"/>
<path d="M70.1241 6.70396C70.4642 3.83944 69.2926 1.24073 65.033 1.24073C65.033 1.24073 32.9691 1.24073 31.1397 1.24073C27.667 1.23557 25.3708 3.13751 25.0457 5.98138C24.9265 7.02912 24.8123 7.95299 24.8123 7.95299H69.9727C69.9727 7.95299 70.0571 7.2588 70.1241 6.70396Z" fill="#121418"/>
<path d="M69.4986 25.1582L77.1565 25.153L78.8891 10.513L71.2263 10.5078L69.4986 25.1582Z" fill="#121418"/>
<path d="M24.0552 1.24073H3.57876L2.78691 7.95299H23.2658L24.0552 1.24073Z" fill="#121418"/>
<path d="M117.585 1.24072H100.651L97.8633 25.153C97.8633 25.153 114.214 25.1581 114.877 25.153C115.421 25.1117 119.176 25.073 120.499 21.8317C120.929 20.7788 121.259 17.8472 121.368 17.0549C121.636 15.1323 120.648 14.0201 119.663 13.3723C119.444 13.2304 119.496 12.8846 119.745 12.8175C120.785 12.5388 121.765 11.9633 122.033 10.7375C122.222 9.87556 122.403 7.98137 122.532 6.92846C123.118 2.50782 120.261 1.2433 117.585 1.2433V1.24072ZM116.93 16.3065L116.612 18.9594C116.476 20.1956 115.56 20.9698 114.294 21.0575H102.905L103.56 15.3414H116.235C117.086 15.3414 116.932 16.3065 116.932 16.3065H116.93ZM118.178 6.32717L117.861 8.98008C117.724 10.2162 116.808 10.9904 115.542 11.0781H104.153L104.809 5.36201H117.483C118.409 5.36201 118.181 6.32717 118.181 6.32717H118.178Z" fill="#121418"/>
<path d="M145.605 5.36201L146.074 1.25105H125.923L123.093 25.153H143.247L143.716 21.0162L128.202 21.0704L128.954 15.3414H142.011L142.488 11.1349H129.453L130.195 5.36201H145.605Z" fill="#121418"/>
<path d="M169.152 1.25105H148.505L148.03 5.38782H156.076L153.72 25.153H158.28L160.66 5.38782H168.683L169.152 1.25105Z" fill="#121418"/>
</g>
<defs>
<clipPath id="clip0_808_8151">
<rect width="168.548" height="24" fill="white" transform="translate(0.503906 0.982666)"/>
</clipPath>
</defs>
</svg>
