<?xml version="1.0" encoding="UTF-8"?>
<svg version="1.1" viewBox="0 0 1600 1600" width="400" height="400" xmlns="http://www.w3.org/2000/svg">
<path transform="translate(0)" d="m0 0h1600v1600h-1600z" fill="#4F38B1"/>
<path transform="translate(0)" d="m0 0h1600v307l-25 12-22 12-35 21-19 11-16 9-11 6-7 4-18 10-22 12-23 13-14 8-19 11-17 10-11 6-6 2v2l-14 7-26 16-15 8-18 10-6 3-15 9-6 2v2l-7 3-7 5-12 6-6 5-6 3h-2v2l-7 3h-6v3h-2l-10-13-9-11-9-10-7-8-11-12-11-11-8-7-17-14-17-13-23-15-22-13-27-14-21-9-34-12-30-8-31-6-26-3-27-2h-34l-26 2-24 3-23 4-30 7-23 7-29 11-20 9-19 10-19 11-15 10-14 10-13 10-13 11-15 14-19 19-7 8-11 13-12 16-11 16-5 1-16 8-21 12-11 6-18 10-12 7-12 6-22 12-10 6-12 6-21 12-4 2h-4v2l-3 1-4 11h-1l1-9 20-77 3-13 4-2 6-5 11-6 39-26h2v-2l14-9 19-13 10-7 14-9h2v-2l11-7 9-7 16-11 9-6h2l1-4h-53l-104 4-58 2-31 1-47 2-66 2h-16l3-3 11-6 41-19 17-8 16-8 12-5 15-7 23-10 74-34 32-14 28-13 36-16 16-8 24-11 20-9 16-8 28-12 8-4 23-11 29-13 15-7 13-6 33-15 18-8 14-7 14-6 15-7 32-14 10-5 5-1v-3l-16 3-32 9-14 3-13 3-14 3-43 11-32 8-14 3-38 9-20 5-7 1-9 3-48 12-9 2-13 3-152 38-25 6-17 5-27 6-26 7-36 9-22 5-14 4-34 8-15 4-51 12-5 1z" fill="#6342EF"/>
<path transform="translate(739,153)" d="m0 0h7v3l-14 6-15 7-23 10-15 7-22 10-14 7-31 14-28 13-12 5-34 16-15 7-31 14-14 7-7 3-31 14-18 8-16 8-37 17-16 7-15 7-21 9-15 7-20 9-15 7-35 16-26 11-8 4-20 9-16 8-32 15-24 12h15l66-2 79-3 138-5 32-1h34l10 1-1 4-11 7-16 11-12 9-6 4h-2v2l-18 11-8 6-19 13-12 8h-2v2l-11 7-24 16-14 9-5 3-7 4-4 17-20 77 1-2 3-5h3v-2l10-4 21-12 11-6 26-14 14-8 14-7 15-9 11-6 15-8 13-8 15-7 2 2-11 18-10 17-16 32-1 4 45-1 14-25 12-19 12-17 13-16 9-11 7-7 7-8 7-7 8-7 11-10 14-11 13-10 15-10 18-11 18-10 24-11 32-12 24-7 28-6 28-4 24-2h32l28 2 32 5 25 6 2 2-6 1-1 3-11 9-5 4h-2v2l-8 7-16 13-8 6h-2v2l-10 7-14 11-11 8-5 4h-2v2l-5 2v2l-6 4-5 4h-2v2l-6 4h-2v2l-16 14-9 7-3 1v2l-10 7-14 7-7 8-9 8h-2v2l-8 6h-2v2l-11 9-15 12-4 1v2l-8 6h-2v2l-14 11-11 9-10 8-11 8h-2v2l-9 6h-3l-1 2-3 4 1-13h-19l-12 5-14 11-7 9-1-4 4-17 1-2-54 1-15 57-26 100-6 22h56l3-12 2-2v6l23-11 17-9 9-6 16-8 7-4h2v-6l2 2 4 15 7 14 8 10 10 7 12 5 17 2-1 3-6 3-10 7-17 11-14 9-13 9-81 54-11 8-6 4h-2v2l-7 4-15 11-9 5h-2v9l-3-3-7-15-10-27-7-24-5-21-4-21-1-1h-15l-14-2-13-5 9 46 7 26 10 30 10 24 11 24 10 18 12 19 13 19 10 13 9 11 9 10 7 8 24 24 8 7 14 12 19 14 29 19 24 13 29 14 26 10 32 10 2 2-1 3-17 7-16 8-19 9-9 4-16 8-9 4-17 8-19 10-50 24-47 22-16 8-20 9-15 8-32 16-25 12-22 10-16 8-19 9-16 8-19 9-32 16-27 13-23 11-26 12-16 8-79 38-23 11-30 15-9 4h-3l1-9 8-38 6-32 9-46 4-20v-6l-4 4h-2l-2 4-10 11-7 8-17 17-7 8-4 2v-1127l16-5 53-12 15-4 21-5 14-4 26-6 36-9 22-6 27-6 25-7 22-5 26-7 49-12 20-5 41-10 16-4 10-3 15-3 48-12 1-1 15-3 50-12 30-7 44-11 18-5 20-4 18-4 36-10z" fill="#4F38B1"/>
<path transform="translate(1599,465)" d="m0 0h1v683l-17 4-16 5-13 4-4 1-36 10-24 7-36 10-28 8-27 7-26 8-17 5-21 6-71 20-22 7-26 7-36 10-12 3-18 6-27 7-24 7-23 7-21 6-54 16-24 7-19 5-24 7-21 6-41 12-41 11-9 3-14 4-25 7-21 6-32 9-31 9-21 6-20 6-83 24-40 12-19 5-31 9-26 7h-5l5-4 20-13 30-18 16-10 15-10 14-8 16-10 7-5 9-5 11-8 13-8 11-7 9-6 12-7 11-7 14-8 9-6 10-7 6-2v-2l8-4 9-6 15-9 18-11 15-10 22-14 24-16h2v-2l9-6 3-3 36-2 36-4 29-5 32-8 33-11 26-11 26-13 17-10 19-12 18-13 14-11 10-9 8-7 17-16 16-17 12-14 14-18 8-12 11-17 12-21 11-21 12-28 12-36 8-32 4-21 2-14-10-2-16-7-11-7v-2h-2l-2 18-7 35-7 26-10 28-11 25-3 3-5-1-5 2-16 6-48 16-10 4-12 4-20 7-6 2-32 11-14 6-37 12-15 6h-2l-1 2-1-17v-60l1-1 34-1v-30h-103v-1h11l2-4 3-3 3-5 6-4 16-11 36-24-1-4-8-11-1-4 3 3 6 8 9 8 11 5 11 3 7 1h16l14-3 12-5 8-6-2-10-5-24-7 1h-8l1-7h2l2-4 22-13 3-2 1-4h-2v-2l5 2 14 7 14 3h13l14-2 18-6 16-9 12-11 9-10 9-14 7-15 5-18 4-19 4-2 12-1 1-2-1 8-3 19v14l2 14 4 13 7 14 9 10 7 6 16 8 16 3h11l16-2 9-3 11-41-11 4-4 1h-19l-10-4-7-8-4-10-1-7v-11l2-15 4-13 5-12 9-12 10-8 9-4 6-1h8l10 3 9 5 7 5 2-11 7-26v-4l-6-2-16-6-6-2v-1l5-1 2-5 16-9 22-16 16-10 4-2 2-3-1 9-16 62-13 50-19 73-9 35h55l4-16 10-38 5-1 9 5 8 9 4 10 1 5v17l-2 25 2 16 4 10 5 7 10 7 10 4 13 2h10l18-4 12-6v-8l-5-22v-6l-11 3h-10l-6-3-3-4-1-3-1-36-4-15-8-15-5-6-4-4 9-3 15-6 13-7 13-10 8-9 8-13 4-11 1-6v-16l-4-11-6-9-8-7-10-5-9-2h-20l-12 3-15 8-7 6h-2l4-16 20-77 5-16 3-3h2l1-3 14-9 9-6 16-11 11-7 12-8h2v-2l13-8 40-28 11-7z" fill="#4F38B1"/>
<path transform="translate(0)" d="m0 0h619l-4 3-21 8-43 15-36 12-87 28-36 12-50 16-35 12-40 13-8 3-29 10-15 5-32 10-60 21-3 2 25-4 64-8 22-2 15-2 23-2 17-2 94-11 43-5 79-9 56-7 54-6 24-3 103-12 82-10 17-2 37-4 33-4 50-5 22-3 56-7 102-12 146-16 49-6 29-4h9l-2 2-22 8-22 10-28 11-22 9-16 6-13 6-17 7-80 32-12 5-15 6-23 9-11 5-30 12-18 7-12 5-11 5-16 6-14 6-16 6-30 12-14 6-13 5-15 6-12 5-15 6-12 5-25 10-24 10-26 11-36 15-13 5-12 5-27 11-24 10-28 11-18 8-8 4-5 3h-3v2l14-4 12-2 30-3 24-3 20-3 25-3 42-6 74-9 12-2 23-2 9-2 20-2 3 1-11 6-14 8-10 6-14 7-14 8-17 10-11 6-9 5-5 3-4 4h-4v2l-26 2-24 3-23 4-30 7-23 7-29 11-20 9-19 10-19 11-15 10-14 10-13 10-13 11-15 14-19 19-7 8-11 13-12 16-11 16-5 1-16 8-21 12-11 6-18 10-12 7-12 6-22 12-10 6-12 6-21 12-4 2h-4v2l-3 1-4 11h-1l1-9 20-77 3-13 4-2 6-5 11-6 39-26h2v-2l14-9 19-13 10-7 14-9h2v-2l11-7 9-7 16-11 9-6h2l1-4h-53l-104 4-58 2-31 1-47 2-66 2h-16l3-3 11-6 41-19 17-8 16-8 12-5 15-7 23-10 74-34 32-14 28-13 36-16 16-8 24-11 20-9 16-8 28-12 8-4 23-11 29-13 15-7 13-6 33-15 18-8 14-7 14-6 15-7 32-14 10-5 5-1v-3l-16 3-32 9-14 3-13 3-14 3-43 11-32 8-14 3-38 9-20 5-7 1-9 3-48 12-9 2-13 3-152 38-25 6-17 5-27 6-26 7-36 9-22 5-14 4-34 8-15 4-51 12-5 1z" fill="#4F38B1"/>
<path transform="translate(1598,307)" d="m0 0h2v158l-10 5-10 7-16 11-20 14-11 7h-2v2l-14 9-11 7-16 11-9 6-14 9-3 3h-2l-3 11-13 50-12 45-2 5 6-4 8-6 13-6 9-2h20l11 3 11 6 8 8 7 14 1 4v16l-3 12-7 14-9 11-9 8-14 9-15 7-14 4 5 5 7 10 6 13 3 12 1 36 3 6 6 3h10l6-2h5l6 28v8l-8 5-12 4-11 2h-10l-16-3-12-6-6-5-7-11-3-10-1-15 2-22v-17l-4-13-6-8-5-4-6-3h-4l-14 52-1 2h-55l1-8 15-58 13-50 28-108v-2l-2 2-10 5-10 7-11 8-15 10-9 5h-2l-2 6-3 1 18 6 8 4 1 4-10 37-5-2-5-4-11-5-5-1h-8l-9 2-10 6-7 6-9 14-6 16-2 10-1 10v11l2 11 6 10 5 4 8 3h19l10-3 5-1-1 7-9 34-6 3-10 2-10 1h-11l-16-3-16-8-10-9-7-8-8-16-4-16-1-9v-14l3-19 1-6-9 2-7 1-1 8-4 19-5 15-9 17-10 13-13 13-14 9-11 5-13 4-14 2h-13l-14-3-16-8-10-9-8-11-7-16-3-15v-22l3-19 5-16 6-14 9-14 8-10 10-10 15-10 14-6 18-4h18l16 4 12 6 10 8 8 10 2 3v-5l6-2 7-5h2v-2l4-1h1l-6-9-15-16-15-28-13-22-10-15-12-16-12-14-7-8-11-12-7-7-8-7-10-9-11-9-17-13-15-10-8-5-6 1-5 4-17 9-15 9h-2v2l-12 7-10 6-10 7-10 5-8 5h-2v2l-12 6-10 6-13 10-16 9-12 8-22 13-12 8-5 2v2l-9 6-10 7-9 1-1 3-15 57-12 45-23 89-10 38-1 1h-46l-1-3 4-15-5 5-8 7-12 6-11 3h-13l-12-3-11-6-9-8-9-14-5-13-2-9-1 4-33 18-16 9-21 10-4 1-1-4-4 12-9 1h-23l-24-1 2-10 14-55 17-65 13-49 1-1 52-1 2 1-3 16-1 6 8-10 13-10 12-5h13l6 1v10l2-3 7-3 4-3h2v-2l12-8 8-7 14-11 12-10h2v-2l8-6h2v-2l9-6 16-13 3-3h2v-2l8-6h2v-2l4-3h2l2-4 10-10 6-3h2l1-2 10-5 3-3h2v-2l17-13 9-9h2v-2l6-4h2v-2l6-4 5-4h2v-2l5-2v-2l11-8 12-9 13-10 4-3h2v-2l12-9 16-13 4-4h2v-2l12-9 3-1 1-3 5-4 2-1-25-6-32-5-28-2h-32l-32 3-31 5-24 6-22 7-27 10-26 12-23 13-11 7-12 8-16 12-10 8-10 9-8 7-13 12-14 15-9 11-11 14-10 14-12 19-15 26-2 3h-45l1-6 8-17 12-22 11-18 16-24 9-11 10-13 11-12 7-8 23-23 8-7 13-11 19-14 26-17 18-10 15-8 25-11 30-11 25-7 26-6 34-5 19-2 16-1h34l38 3 32 5 30 7 29 9 24 9 24 11 23 12 23 14 22 15 16 13 10 8 10 9 8 7 14 14 7 8 10 11 11 14 9 11v2l2-1v-3h7l3-2h3v-2l9-5 5-4 12-6 10-7h4v-2l13-7 11-7 16-8 14-8 11-6 11-7 19-11 5-1v-2l12-6 5-3 12-7 14-8 19-11 21-12 56-31 22-12 24-14 15-9 13-8 21-12 16-8z" fill="#6241EE"/>
<path transform="translate(1594,1269)" d="m0 0h6v331h-1421l3-3 22-7 42-12 30-8 27-8 43-12 108-30 90-25 48-13 23-6 21-6 38-10 41-12 36-10 26-7 47-13 35-10 67-18 27-8 25-7 14-4 30-8 18-5 26-7 29-8 23-6 28-8 30-8 23-7 20-5 9-3h7v2h-3l-1 3-5 3h-2v2l-5 3h-2v2l-8 6h-2v2l-6 2v2l-9 6-5 2v2l-18 12h-2v2l-11 7-7 5h-2v2l-14 10h-2v2l-6 4h-2v2l-6 4h-2v2l-14 10-19 14-11 8-6 4h-2v2l-10 7-4 3h-2v2l-17 12-5 2v2l-11 8-5 2v2l-20 14h-2v2l-13 9-12 9-2 1 1 2 20-9 16-6 34-13 23-8 19-7 39-15 32-12 31-12 43-16 37-14 27-11 20-7 34-13 30-11 11-5 20-7 31-12 21-8 64-25 40-15 38-14z" fill="#4F38B1"/>
<path transform="translate(1221,841)" d="m0 0h2v2l4 2 15 8 18 6-1 14-6 30-8 30-10 29-10 23-8 16-12 23-12 19-13 19-14 18-9 10-7 8-14 15-7 7-8 7-14 13-14 11-15 11-18 12-15 9-18 10-29 14-29 11-30 9-31 7-35 5-20 2-36 2-8 7-4 1v2l-11 7-12 8-19 12-18 12-18 11-6 4h-2l-1 2-14 8-5 4-4 2h-3v2l-12 7-9 6-14 9-9 5-12 8-11 6-10 7-13 8-15 10-7 5-7 4-21 13-20 12-18 12-17 10-13 8-16 10-12 8 9-2 30-8 24-7 26-7 47-14 42-12 27-8 59-17 27-8 34-9 23-7 18-5 24-7 21-6 25-7 21-6 24-7 18-5 17-5 27-7 48-15 49-14 25-7 24-7 21-6 5-2 16-4 68-19 30-9 29-8 42-12 17-5 26-8 38-10 24-7 32-9 25-7 17-5 15-4 4-1 16-5 21-6 9-1v121l-12 3-70 26-28 11-26 10-23 9-29 11-23 9-22 8-12 5-35 13-21 8-27 10-20 8-21 8-64 24-39 15-29 11-26 10-28 10-32 12-27 10-11 5-15 6v-4l6-4 16-12 5-2v-2l11-7 9-7h2v-2l6-4 8-6h2v-2l11-7 9-7h2v-2l14-10h2v-2l11-7 13-10 14-10 12-9h2v-2l6-4h2v-2l6-4h2v-2l10-7 4-3h2v-2l18-12h2v-2l18-12h2v-2l9-6 5-2v-2l6-2v-2l8-6h2v-2l5-3h2v-2l7-4 1-2h3v-2l-12 2-8 3-27 7-16 5-26 7-42 12-24 6-28 8-28 7-13 4-19 5-20 6-50 14-48 13-25 7-58 16-35 10-24 6-23 7-43 12-30 8-44 12-59 16-104 29-87 24-91 26-26 7-31 9-12 4-3 2h-179v-137l9-8 7-8 17-17 9-11 5-6 6-5h1v7l-6 29-7 37-10 52-6 27 20-9 28-14 52-25 23-11 33-16 22-10 16-8 29-14 21-10 14-7 19-9 16-8 29-14 27-13 46-22 19-10 17-8 14-7 22-10 26-13 28-13 46-22 17-9 17-8 20-9 8-4 23-11 16-8 13-6 6-2-1-3-35-11-25-10-33-16-20-11-31-21-17-13-15-13-13-12-23-23-9-11-8-9-15-20-10-15-13-21-12-22-13-29-13-36-8-29-6-29-3-16v-5l5 1 12 4 10 1h15l2 2 6 31 9 32 9 25 8 18 9 19 12 22 14 21 13 18 11 13 9 11 22 22 8 7 13 11 20 15 15 10 22 13 15 8 28 12 25 9 30 8 22 5 33 4 30 2h17l29-2 30-4 20-4 27-7 32-11 25-11 22-11 20-12 23-16 16-13 11-9 16-15 10-10 7-8 10-11 10-13 12-17 11-17 12-21 14-29 11-29 7-23 8-36 3-17 1-10z" fill="#6241EE"/>
<path transform="translate(426,994)" d="m0 0 5 1 10 19 10 17 13 20 10 14 11 14 12 14 11 12 22 22 8 7 14 12 19 14 29 19 24 13 29 14 26 10 32 10 2 2-1 3-17 7-16 8-19 9-9 4-16 8-9 4-17 8-19 10-50 24-47 22-16 8-20 9-15 8-32 16-25 12-22 10-16 8-19 9-16 8-19 9-32 16-27 13-23 11-26 12-16 8-79 38-23 11-30 15-9 4h-3l1-9 8-38 6-32 9-46 4-20v-6l-4 4h-2l-2 4-10 11-7 8-17 17-7 8-4 2v-185l12-7 10-7 12-8 43-29 26-17 14-9 10-7 39-26 19-13 12-8 16-11 4-3h3v-2l11-7 18-12 16-11h3v-2l41-27 10-7 6-4h2v-2l13-8 9-6h2v-2l13-8 19-12 20-13 16-11 4-4z" fill="#6241EE"/>
<path transform="translate(739,153)" d="m0 0h7v3l-14 6-15 7-23 10-15 7-22 10-14 7-31 14-28 13-12 5-34 16-15 7-31 14-14 7-7 3-31 14-18 8-16 8-37 17-16 7-15 7-21 9-15 7-20 9-15 7-35 16-26 11-8 4-20 9-16 8-32 15-24 12h15l66-2 79-3 138-5 32-1h34l10 1-1 4-11 7-16 11-12 9-6 4h-2v2l-18 11-8 6-19 13-12 8h-2v2l-11 7-24 16-14 9-5 3-7 4-4 17-21 81-13 50-13 49-19 72-3 7h-56l1-7 19-73 11-41-51 1-4 16-12 47-13 48-3 9-45 1-12-1 4-17 15-57 8-31 21-81 6-23 2-5-13 4-15 2h-8l-5-1 1-5 7-28 2-3 17-3 13-5 9-6 9-9 5-6 7-1h39l1-4 4-4 13-8 14-9 10-7 12-7 5-3h2v-2l-13 4-17 6-13 4-18 6-45 14-20 7-24 9-93 31-16 4v-262l16-5 53-12 15-4 21-5 14-4 26-6 36-9 22-6 27-6 25-7 22-5 26-7 49-12 20-5 41-10 16-4 10-3 15-3 48-12 1-1 15-3 50-12 30-7 44-11 18-5 20-4 18-4 36-10z" fill="#6241EE"/>
<path transform="translate(806,361)" d="m0 0h34l38 3 32 5 30 7 29 9 24 9 24 11 23 12 23 14 22 15 16 13 10 8 10 9 8 7 14 14 7 8 10 11 11 14 12 15 8 12 12 19 12 21 8 17 9 21 5 11v5l-8 7-10 10-3 4-3-1-7-12-12-14-7-8-14-26-13-22-10-15-12-16-12-14-7-8-11-12-7-7-8-7-10-9-11-9-17-13-15-10-8-5-6 1-5 4-17 9-15 9h-2v2l-12 7-10 6-10 7-10 5-8 5h-2v2l-12 6-10 6-13 10-16 9-12 8-22 13-12 8-5 2v2l-9 6-10 7-9 1-1 3-15 57-12 45-23 89-10 38-1 1h-46l-1-3 4-15-5 5-8 7-12 6-11 3h-13l-12-3-11-6-9-8-9-14-5-13-2-9-1 4-33 18-16 9-21 10-4 1-1-4-4 12-9 1h-23l-24-1 2-10 14-55 17-65 13-49 1-1 52-1 2 1-3 16-1 6 8-10 13-10 12-5h13l6 1v10l2-3 7-3 4-3h2v-2l12-8 8-7 14-11 12-10h2v-2l8-6h2v-2l9-6 16-13 3-3h2v-2l8-6h2v-2l4-3h2l2-4 10-10 6-3h2l1-2 10-5 3-3h2v-2l17-13 9-9h2v-2l6-4h2v-2l6-4 5-4h2v-2l5-2v-2l11-8 12-9 13-10 4-3h2v-2l12-9 16-13 4-4h2v-2l12-9 3-1 1-3 5-4 2-1-25-6-32-5-28-2h-32l-32 3-31 5-24 6-22 7-27 10-26 12-23 13-11 7-12 8-16 12-10 8-10 9-8 7-13 12-14 15-9 11-11 14-10 14-12 19-15 26-2 3h-45l1-6 8-17 12-22 11-18 16-24 9-11 10-13 11-12 7-8 23-23 8-7 13-11 19-14 26-17 18-10 15-8 25-11 30-11 25-7 26-6 34-5 19-2z" fill="#6241EE"/>
<path transform="translate(1540,29)" d="m0 0h2l-1 5-9 15-9 16-14 26-7 14-8 14-8 16-11 21-12 22-10 19-12 21-8 16-12 23-12 21-6 12-10 18-4 7-7 14 5-2 10-8h2v-2l11-8 5-4h2v-2l14-11 4-3h2v-2l17-13 3-1v-2l10-8 17-14 14-11 8-6h2v-2l5-2v-2l4-1v-2h2v-2l13-10 10-9 12-9 22-18 15-11 7-5h2v148l-25 12-22 12-35 21-19 11-16 9-11 6-7 4-18 10-22 12-23 13-14 8-19 11-17 10-11 6-6 2v2l-14 7-26 16-15 8-18 10-6 3-15 9-6 2v2l-7 3-7 5-12 6-6 5-6 3h-2v2l-7 3h-6v3h-2l-10-13-9-11-9-10-7-8-11-12-11-11-8-7-17-14-17-13-23-15-22-13-5-3 2-4 9-6 10-6 28-21 13-10 12-9 5-4 4-3h2l1-3 8-6 9-7 10-7 16-12 6-4 4-3h2v-2l6-4 11-8 5-4h2v-2l16-12 5-4h3l1-3 6-4 15-12 13-10 16-12 11-8 12-9 14-10 26-20 16-12 9-7 11-8h2v-2l13-10 19-14 10-7h2v-2l6-4 18-13 13-10h2v-2l14-10 17-14 10-8 19-14 14-9 9-7z" fill="#4F38B1"/>
<path transform="translate(807,403)" d="m0 0h32l28 2 32 5 25 6 2 2-6 1-1 3-11 9-5 4h-2v2l-8 7-16 13-8 6h-2v2l-10 7-14 11-11 8-5 4h-2v2l-5 2v2l-6 4-5 4h-2v2l-6 4h-2v2l-16 14-9 7-3 1v2l-10 7-14 7-7 8-9 8h-2v2l-8 6h-2v2l-11 9-15 12-4 1v2l-8 6h-2v2l-14 11-11 9-10 8-11 8h-2v2l-9 6h-3l-1 2-3 4 1-13h-19l-12 5-14 11-7 9-1-4 4-17 1-2-54 1-15 57-16 61-2 2-5 3-4 2-5 2-2 4-5 2-2 4-2 10-8 28-8 5-8 2h-21l-10-4-10-9-4-6-1-6-3 1-8 10-10 7-11 5-9 2h-12l-12-3-10-5-11-10-7-10-5-12-3-13v-28l5-25 7-19 8-16 10-14 7-8 8-7 11-8 11-5 17-4h12l10 2 7-1 6-3h6l7-8 6-4 4-4 5-1v-2l2-1h35l2-6 15-26 11-17 11-15 11-14 12-14 15-16 15-14 11-9 8-7 16-12 15-10 18-11 18-10 24-11 32-12 24-7 28-6 28-4z" fill="#4F38B1"/>
<path transform="translate(285,1165)" d="m0 0h2l-2 6-8 17-10 21-9 16-27 54-6 10-15 30-8 15-8 16-12 25-4 6 9-2 10-4 36-12 38-13 36-12 57-20 30-11 36-12 53-18 25-9 26-9 34-12 30-10 35-12 21-7h4v-2l7-4 9 2 39 13-1 4-17 7-16 8-19 9-9 4-16 8-9 4-17 8-19 10-50 24-47 22-16 8-20 9-15 8-32 16-25 12-22 10-16 8-19 9-16 8-19 9-32 16-27 13-23 11-26 12-16 8-79 38-23 11-30 15-9 4h-3l1-9 8-38 6-32 9-46 4-20v-6l-4 4h-2l-2 4-10 11-7 8-17 17-7 8-4 2v-119l11-6 15-9 16-10 21-13 11-7 21-13 11-7 20-13 23-14 14-9 3-2h3v-2l20-12 10-7 30-19 15-10 16-10 15-9z" fill="#4F38B1"/>
<path transform="translate(1599,1427)" d="m0 0h1v173h-927l5-5 11-8 12-8 17-11 22-14 10-6 39-24 22-14 17-10 15-10 26-16 10-6 11-7 4-1 1 4-5 13-10 31-12 35-10 29-7 23 10-2 57-19 10-4 72-24 35-12 43-14 35-12 72-24 44-15 38-12 27-9 7-3 18-6 3 1-2 5-16 26-14 22-10 15-11 17-14 22-16 26-7 13-4 6-1 4 16-8 19-9 15-7 26-12 25-11 35-16 18-8 25-11 20-9 24-11 15-7 27-12 8-4 21-9 25-11 15-7 21-10z" fill="#6342EF"/>
<path transform="translate(919,557)" d="m0 0h52l19 1 15 3 16 6 10 6 10 9 7 10 4 8 4 15 1 7v18l-4 15-8 16-9 12-10 11-13 10-17 9-12 4h-2v2l4 2 7 7 6 9 7 15 4 14 1 8v36l-1 27 3 10 7 6 3 1h12l7-2 5 1 6 27 1 7-7 6-11 5-10 3-7 1h-16l-15-3-12-5-8-6-7-7-4-6 7 11 3 3-1 4-10 7-11 7-15 10-13 9-9 6-4 7-4 4 92 1 1 2v28l-1 1-34 1-1 103-35 1-1-1v-104h-34l-1-1-1-27-1 8-6 5-1 2-5-5-2-3h-2v20l-2 1h-50v21h43l1 1v28l-1 1-42 1v22l52 1 1 26-1 4h-88l-1-16v-120l8-6 33-21h2v-2l22-14 13-8h2v-2l15-9 10-7h2v-2l11-7 16-10 3-1v-2l5-4 5-1v-2h2v-2l9-5 10-7 5-1 5-34v-27l-4-13-6-11-11-12-10-6h-2l-13 50-12 45-3 9h-57l2-9 10-40 35-133 8-31-16 4-8 1h-16l4-18 5-18 1-1 17-3 15-6 9-7 9-9z" fill="#FEFEFE"/>
<path transform="translate(1221,841)" d="m0 0h2v2l4 2 15 8 18 6-1 14-6 30-8 30-10 29-10 23-8 16-12 23-12 19-13 19-14 18-9 10-7 8-14 15-7 7-8 7-14 13-14 11-15 11-18 12-15 9-18 10-29 14-29 11-30 9-31 7-35 5-20 2-24 1h-17l-35-3-28-4-30-6-31-9-28-10-28-13-29-15-36-24-17-13-15-13-13-12-23-23-9-11-8-9-15-20-10-15-13-21-12-22-13-29-13-36-8-29-6-29-3-16v-5l5 1 12 4 10 1h15l2 2 6 31 9 32 9 25 8 18 9 19 12 22 14 21 13 18 11 13 9 11 22 22 8 7 13 11 20 15 15 10 22 13 15 8 28 12 25 9 30 8 22 5 33 4 30 2h17l29-2 30-4 20-4 27-7 32-11 25-11 22-11 20-12 23-16 16-13 11-9 16-15 10-10 7-8 10-11 10-13 12-17 11-17 12-21 14-29 11-29 7-23 8-36 3-17 1-10z" fill="#FEFEFE"/>
<path transform="translate(1174,974)" d="m0 0h7l1 3-12 23-12 19-11 16-9 12-9 11-22 24-12 12-8 7-13 11-13 10-20 14-20 12-23 12-22 10-28 10-20 6-24 6-25 4-28 3-18 1h-17l-30-2-33-4-30-7-25-7-25-9-16-7v-2l-3-1v-2h2v-2l9-4 20-6 43-15 12-5 10-4 20-6 21-7 17-6 9-3 16-6 7-2 13-5 10-2 4-1 1-3 15-6 25-7 12-1v-13h1l1 24h35v-43h1l1 15 20-8 37-12 13-6 30-10 8-3 39-13 10-4 29-10 14-4 12-5z" fill="#6241EE"/>
<path transform="translate(1598,832)" d="m0 0h2v266l-6 2-30 5-62 11-17 3-38 7-20 4-19 3-24 4-37 6-13 3-18 3-28 4h-9l1-4 7-8 5-6 94-94h2l2-4 4-4h2l1-3 8-7 64-64h2l2-4 4-4h2v-2h2v-2l7-6 5-6 8-7 9-10 7-7 5-6h2v-2l8-7 11-11 6-7 8-7 8-8h2v-2h2v-2l8-7h2v-2h2v-2l8-7z" fill="#6342EF"/>
<path transform="translate(806,361)" d="m0 0h34l38 3 32 5 30 7 29 9 24 9 24 11 23 12 23 14 22 15 16 13 10 8 10 9 8 7 14 14 7 8 10 11 11 14 12 15 8 12 12 19 12 21 8 17 9 21 5 11v5l-8 7-10 10-3 4-3-1-7-12-12-14-7-8-14-26-13-22-10-15-12-16-12-14-7-8-11-12-7-7-8-7-10-9-11-9-17-13-15-10-11-7-17-10-22-11-26-11-20-7-27-8-29-6-21-3-28-2h-32l-32 3-31 5-24 6-22 7-27 10-26 12-23 13-11 7-12 8-16 12-10 8-10 9-8 7-13 12-14 15-9 11-11 14-10 14-12 19-15 26-2 3h-45l1-6 8-17 12-22 11-18 16-24 9-11 10-13 11-12 7-8 23-23 8-7 13-11 19-14 26-17 18-10 15-8 25-11 30-11 25-7 26-6 34-5 19-2z" fill="#FEFEFE"/>
<path transform="translate(1029,463)" d="m0 0 5 1 12 8 17 12 16 13 15 13 16 15 7 7 7 8 12 14 10 13 9 13 12 19 9 16 13 24 9 9 9 11 4 6-1 2-3-2h-3v2l-9 6h-3l-2 4-1 3-11-14-12-9-15-6-10-2h-18l-21 5-16 8-12 9-10 10-11 16-7 14-6 17-3 14-1 9v22l3 15 7 16 8 11 6 6v3h2l-1 5-26 16-1 2h-2l1 6 2 2h-12l-7-4-5-6-2-8 1-27v-36l-3-16-6-15-6-11-11-12-2-1v-2l18-7 16-9 14-12 10-12 9-15 5-13 2-9v-18l-3-16-5-12-7-11-7-7-13-8-16-6-15-3-19-1h-52l-11 12-8 7-12 6-15 4-8 1-10 36 24-2 8-1v2l-5 1-1 3-8 6-14 8-19 10-22 13-19 10-8 5-7 2-1-3 19-73 1-5 11-3 14-10 5-2v-2l22-14 17-10 12-8 19-11 10-8 6-4 14-7h2v-2l13-8 8-4 11-7 5-3 13-8h2v-2l16-9 8-5 13-7z" fill="#6241EE"/>
<path transform="translate(154,557)" d="m0 0h49l-2 11-18 69-7 26-1 2h46l5 1 4-17 19-74 5-17 5-1h53l-11 43-16 62-11 42-13 49-19 72-3 7h-56l1-7 19-73 11-41-51 1-4 16-12 47-13 48-3 9-45 1-12-1 4-17 15-57 8-31 21-81 6-23 2-5-13 4-15 2h-8l-5-1 1-5 7-28 2-3 17-3 13-5 9-6 9-9 5-6z" fill="#FEFEFE"/>
<path transform="translate(1405,557)" d="m0 0h56l-2 10-13 50-12 45-2 5 6-4 8-6 13-6 9-2h20l11 3 11 6 8 8 7 14 1 4v16l-3 12-7 14-9 11-9 8-14 9-15 7-14 4 5 5 7 10 6 13 3 12 1 36 3 6 6 3h10l6-2h5l6 28v8l-8 5-12 4-11 2h-10l-16-3-12-6-6-5-7-11-3-10-1-15 2-22v-17l-4-13-6-8-5-4-6-3h-4l-14 52-1 2h-55l1-8 15-58 13-50 21-81 18-69z" fill="#FEFEFE"/>
<path transform="translate(760,557)" d="m0 0h54l1 3-8 28-13 52-17 64-23 89-10 38-1 1h-46l-1-3 4-15-5 5-8 7-12 6-11 3h-13l-12-3-11-6-9-8-9-14-5-13-2-9v-27l3-18 5-16 7-17 8-14 7-9 9-10 11-10 15-8 13-4 4-1h15l9 2 10 5 10 9 2 1 1-8 10-39 10-38 6-21z" fill="#FEFEFE"/>
<path transform="translate(256,513)" d="m0 0h3v2l-14 8-11 7-10 7-13 8-10 6-3 6-44 1-5 4-7 8-9 8-11 5-9 3-14 2-8 30-2 5h13l15-2 10-3h3l-2 9-16 61-12 47-13 49-9 35-2 7-7 6-16 8-19 10-32 16h-2v-268l16-5 87-29 24-9 20-7 31-10 33-10 13-5 14-4 14-5z" fill="#6241EE"/>
<path transform="translate(369,648)" d="m0 0h12l13 4 11 8 4 5 4 4 2-12 1-5h56l-4 17-16 61-12 45-1 11 4 3 15 1-2 10-8 28-8 5-8 2h-21l-10-4-10-9-4-6-1-6-3 1-8 10-10 7-11 5-9 2h-12l-12-3-10-5-11-10-7-10-5-12-3-13v-28l5-25 7-19 8-16 10-14 7-8 8-7 11-8 11-5z" fill="#FEFEFE"/>
<path transform="translate(950,831)" d="m0 0 3 1v20l2 14 3 11 8 11 1 4-3 3-7 4-27 18-13 9-9 6-4 7-4 4 92 1 1 2v28l-1 1-34 1-1 103-35 1-1-1v-104h-34l-1-1-1-27-1 8-6 5-1 2-5-5-2-3h-2v20l-2 1h-50v21h43l1 1v28l-1 1-42 1v22l52 1 1 26-1 4h-88l-1-16v-120l8-6 33-21h2v-2l22-14 13-8h2v-2l15-9 10-7h2v-2l11-7 16-10 3-1v-2l5-4 5-1v-2h2v-2l9-5 10-7z" fill="#6342EF"/>
<path transform="translate(1599,465)" d="m0 0h1v237l-16 2-40 8-12 2h-6l-3-3 2-11v-16l-4-11-6-9-8-7-10-5-9-2h-20l-12 3-15 8-7 6h-2l4-16 20-77 5-16 3-3h2l1-3 14-9 9-6 16-11 11-7 12-8h2v-2l13-8 40-28 11-7z" fill="#4F38B1"/>
<path transform="translate(1123,648)" d="m0 0h18l16 4 12 6 10 8 8 10 7 14 4 13 1 8v27l-4 19-5 15-9 17-10 13-13 13-14 9-11 5-13 4-14 2h-13l-14-3-16-8-10-9-8-11-7-16-3-15v-22l3-19 5-16 6-14 9-14 8-10 10-10 15-10 14-6z" fill="#FEFEFE"/>
<path transform="translate(884,946)" d="m0 0 2 1 1 27 34 1v80l-1 13-17 3-26 8-9 4-3 3-9 3-7 1-9 4-7 2-40 14-19 7-14 4-10 3-25 10-25 9-21 7-20 6-3 1v2h-2v2l4 1-3 1-19-9-25-15-7-5v-1l6-2 8-4 11-7 11-8 10-7 15-10 15-9 7-5 37-3 16-4 8-4 6-5 6-9 2-7v-23l9-2 9-1 1 41v16l88-1v-29h-52l-1-1v-22l1-1 42-1v-28l-43-1v-21l52-1v-20l3-1 3 6 3 1 4-4 2-1z" fill="#4F38B1"/>
<path transform="translate(1100,517)" d="m0 0 4 2 13 13 7 8 12 14 10 13 9 13 12 19 9 16 13 24 9 9 9 11 4 6-1 2-3-2h-3v2l-9 6h-3l-2 4-1 3-11-14-12-9-15-6-10-2h-18l-21 5-16 8-12 9-10 10-11 16-7 14-6 17-3 14-1 9v22l3 15 7 16 8 11 6 6v3h2l-1 5-26 16-1 2h-2l1 6 2 2h-12l-7-4-5-6-2-8 1-27v-36l-3-16-6-15-6-11-11-12-2-1v-2l18-7 16-9 14-12 10-12 9-15 5-13 2-9v-18l-3-16v-5l7-6h2l2-4 9-11 10-12 4-6 5-5 11-13 6-8 2-5-7-9-4-3z" fill="#6241EE"/>
<path transform="translate(602,780)" d="m0 0 2 2 4 15 7 14 8 10 10 7 12 5 17 2-1 3-6 3-10 7-17 11-14 9-13 9-81 54-11 8-6 4h-2v2l-7 4-15 11-9 5h-2v9l-3-3-7-15-10-27-7-24-5-21-1-9 11-4 16-8 18-10 30-18h2v-2l2-1h9l3-12 2-2v6l23-11 17-9 9-6 16-8 7-4h2z" fill="#4F38B1"/>
<path transform="translate(807,403)" d="m0 0h32v1l-6 1 5 1-5 5-16 10-16 9-10 5h-2v2l-16 8-21 12-19 11-19 10-19 9-5 3-21 11-14 8-19 11-42 23-10 6-14 7-33 18-5 3h-3v2l-6 3-12 5-11 7-7 3-6 1-1-4 11-17 11-15 11-14 12-14 15-16 15-14 11-9 8-7 16-12 15-10 18-11 18-10 24-11 32-12 24-7 28-6 28-4z" fill="#6241EE"/>
<path transform="translate(0)" d="m0 0h152l-2 5-9 11-7 8-13 15-1 2h-2l-2 4-13 14-7 8-10 11-7 9h-2l-2 4-4 5h-2l-2 4-9 10-8 10-11 12-10 13h-2l-2 4-16 16-7 9h-2z" fill="#6342EF"/>
<path transform="translate(1307,288)" d="m0 0h5l1 2-4 7-12 13-8 11h-2l-2 4-9 12h-2l-2 5-12 14-3 5-5 5-7 8-1 3h-2l-2 5-5 5-2 3h-2l-1 4h-2l-2 4-6 7h-2l-2 4-8 10-5 5-11 14-8 10-5 5-9 11-6 8h-2l-2 5h-2v2h-2l-2 4-7 9-4 4-6-4-14-14-8-7-17-14-17-13-5-4v-3l-3-1 4-5 14-8 6-5 6-3 19-13h3v-2l10-5h2v-2l13-7 14-9h3l2-4 10-5 10-7 31-19 11-7 8-5h2v-2l15-9 9-5 17-10 13-8 8-6z" fill="#6241EE"/>
<path transform="translate(658,945)" d="m0 0h59l14 2 11 4 9 7 5 9 2 8-1 11-5 12-6 7-4 4 5 2 6 4 8 9 2 6v19l-3 9-8 10-7 5-15 5-16 2h-55l-1-1z" fill="#FEFEFE"/>
<path transform="translate(1300,648)" d="m0 0h17l17 4 13 5 6 3 1 4-10 37-5-2-5-4-11-5-5-1h-8l-9 2-10 6-7 6-9 14-6 16-2 10-1 10v11l2 11 6 10 5 4 8 3h19l10-3 5-1-1 7-9 34-6 3-10 2-10 1h-11l-16-3-16-8-10-9-7-8-8-16-4-16-1-9v-14l3-19 6-18 10-19 9-12 9-10 9-8 14-9 15-6z" fill="#FEFEFE"/>
<path transform="translate(597,649)" d="m0 0h13l6 1v7l-9 35-3 11-3 1-11-4-10 1-10 5-5 4-9 12-6 13-8 27-15 58-4 12-9 1h-23l-24-1 2-10 14-55 17-65 13-49 1-1 52-1 2 1-3 16-1 6 8-10 13-10z" fill="#FEFEFE"/>
<path transform="translate(480,772)" d="m0 0 2 1-4 17-10 39-1 3h24l21 1v2l-14 8-9 6-11 6-23 13-16 7-5-1-2-11-1-1h-15l-14-2-13-5 7 37-1 8-4 3h-2v2l-7 4-16 9-9 5-24 13-14 8-24 14-24 13-8 5-21 11-22 12-23 13-6 3h-2v2l-11 6-7 4h-2v2l-16 8-12 7-7 2 5-5 3-1v-2l7-5h2v-2l8-6 6-4 5-5 10-8 3-3 6-3 6-7 9-6h2l1-3 8-7 13-10 5-4h2v-2l6-4 4-2v-2l6-4 15-12 8-6h2v-2l5-2v-2l6-4 35-28 13-10h2v-2l6-4h2v-2l8-6h2v-2l9-7 14-12 11-9 10-6 8-2 4 1h21l10-3 5-3 11-38h-6v-1l7-1 10-10 5-3 4-1z" fill="#6241EE"/>
<path transform="translate(675,831)" d="m0 0 4 1-1 4-6 9-11 13-1 2h-2l-2 4-5 7h-2v2h-2l-2 4-8 10-9 11-3 4h-2v2l-2 1-3 5-8 9-1 2h-2l-2 4-7 8-2 4-5 5-9 10-6 8-4 4h-2l-2 4-8 10-4 6-5 5-11 15h-2l-2 4-7 9h-2l-2 4-8 10-4 4-2 6-4-2-3-1-12-17-9-15-8-14-8-18v-7l4-4 11-6 16-12h3v-2l8-5 8-6 84-56 10-7 14-9 15-10 14-9 5-3h2l1-3z" fill="#6241EE"/>
<path transform="translate(780,945)" d="m0 0h87l1 1-1 28-1 1h-50v21h43l1 1v28l-1 1-42 1v22l52 1 1 26-1 4h-88l-1-16z" fill="#FEFEFE"/>
<path transform="translate(460,552)" d="m0 0 2 2-11 18-10 17-16 32-1 4h45v1l-37 1v2l-6 3h-2l-2 4-8 6-4 5-9 1-5 3h-7l-8-2h-12l-17 4-14 7-9 7-5 5h-2l-2 4-8 9-11 18-4 9-4-1-12 2-3 1h-6l-1-3 13-49 2-8 2-2 3-8 4-1v-2l10-4 21-12 11-6 26-14 14-8 14-7 15-9 11-6 15-8 13-8z" fill="#6241EE"/>
<path transform="translate(1597,1158)" d="m0 0h3v47l-13 5-25 11-20 9-17 8-27 12-15 7-10 4-18 8-17 8-20 9-36 16-15 6-15 7-16 7-30 13-28 13-19 9-2-1 22-13 11-6h2v-2l14-8 17-10h2v-2l8-4 12-7 4-3 9-5 11-7h3v-2l9-5 23-13 14-8h2v-2l11-6h2v-2l16-9 5-3 11-6 16-9 17-10 14-8 20-12 27-16 16-9 19-10z" fill="#4F38B1"/>
<path transform="translate(256,513)" d="m0 0h3v2l-14 8-11 7-10 7-13 8-10 6-3 6-44 1-5 4-7 8-9 8-11 5-9 3-14 2-8 30-3 4-11 4-17 10-40 24-19 12h-1v-74l16-5 87-29 24-9 20-7 31-10 33-10 13-5 14-4 14-5z" fill="#4F38B1"/>
<path transform="translate(125,909)" d="m0 0 4 1-2 9-7 12-6 12-8 14-13 24-13 23-15 27-12 22-8 15-13 23-11 21-11 17-9 14h-1v-118l4-4 7-6h2v-2l11-9 11-10h2l1-3 8-7 16-15 4-4h2l2-4 8-7 11-10 9-7 4-5 8-7 14-14z" fill="#6342EF"/>
<path transform="translate(1599,1284)" d="m0 0h1v90l-8 3-32 9-26 7-31 9-21 6-33 10-15 5-4-1 4-5 8-7 8-6 3-3h2v-2l8-6 10-9 9-7h2v-2l17-13 17-14 11-9h2v-2h2v-2l9-7 3-1v-2l11-8 4-2v-2l10-8h2v-2l13-10 10-7z" fill="#6342EF"/>
<path transform="translate(886,945)" d="m0 0h106l1 1v28l-1 1-34 1-1 103-35 1-1-1v-104h-34l-1-1-1-28z" fill="#FEFEFE"/>
<path transform="translate(989,441)" d="m0 0 5 1 22 11 16 10-3 1-5 3-20 11-15 9h-2v2l-12 7-10 6-10 7-10 5-8 5h-2v2l-12 6-10 6-13 10-16 9-12 8-22 13-12 8-5 2v2l-9 6-10 7-9 1-1 3 1-9 6-22h2v2l6-3 10-7 12-8 36-27 10-7 8-7 4-1v-2l10-7 5-4 18-13 12-9 15-10 9-7h2l1-3 16-12h2z" fill="#4F38B1"/>
<path transform="translate(657,945)" d="m0 0h1l1 134 37 1v1l-9 1-9 6-24 15-22 16-17 11-6 3h-7l-14-10-14-11-8-7-7-8-3-4 1-3 9-6 14-9 36-24 20-12 12-7 6-4h3z" fill="#6241EE"/>
<path transform="translate(1524,454)" d="m0 0 3 1-24 14-25 15-8 6-15 11-10 7-21 14-13 8-15 10-14 9-29 19-28 19-10 7-19 12-22 15-11 7-16 12-6 4h-2v3l-3-1-5-11-7-16-3-7v-3l10-3 16-8 15-8 12-6 17-9 30-15 23-12 24-13 17-9 46-22 14-8 16-8 19-10 6-3 20-11z" fill="#4F38B1"/>
<path transform="translate(1144,240)" d="m0 0 3 1-8 7-15 11-11 9-4 3h-2v2l-13 10-12 11h-2l-1 3-19 14-13 10-14 11-16 13h-2v2l-9 7-11 9-17 13-5 3h-2v2h-2l1 4 2 1-9-2-27-8-22-5-1-2h3l2-5 5-3 16-8 19-10 31-18 12-6 12-7 16-8 11-6 10-6 19-9 9-6 16-8 10-6 14-7 21-13z" fill="#4F38B1"/>
<path transform="translate(469,1060)" d="m0 0 5 5 11 14 12 14 11 12 13 13-1 2h-5l-7 5-11 6-8 5-10 6h-2v2l-13 8-24 15-11 7-10 7-11 7-14 10-16 10-12 8h-2l1-4 3-3h2l1-4 6-8h2l2-5 8-10 13-16 7-9 5-5h2l2-4 7-8 4-6h2v-2h2l2-4 11-13 6-8 7-8 11-14 6-7 3-3-2-1-2-4-3-3-3-5z" fill="#4F38B1"/>
<path transform="translate(93,755)" d="m0 0 1 3-11 42-7 26-7 6-16 8-19 10-32 16h-2v-61l5-3 16-8 16-9 19-10 10-6 14-7 6-4z" fill="#6241EE"/>
<path transform="translate(1136,1046)" d="m0 0 1 2-8 10-22 24-12 12-8 7-13 11-13 10-20 14-20 12-23 12-22 10-28 10-20 6-20 5h-7l3-2 21-6 3-1 1-5 6-4v-2l20-12 28-18 26-16 22-14 31-20 13-8 10-6 11-6 16-10h3v-2l10-4h3v-2z" fill="#4F38B2"/>
<path transform="translate(108,696)" d="m0 0 1 4-12 46-3 9-8 4-9 6-16 8-10 6-16 8-25 14-10 4v-38l10-7 14-8 10-7 33-22 17-12 15-10 6-3h3z" fill="#4F38B1"/>
<path transform="translate(1123,689)" d="m0 0h10l5 3 6 10 3 14v11l-4 19-5 15-7 13-7 9-7 6-6 3h-9l-5-3-5-6-3-10-1-7v-14l3-18 6-18 7-13 7-8 8-5z" fill="#6241EE"/>
<path transform="translate(1598,920)" d="m0 0h2v63l-17 6-15 6-15 7-12 5-28 12-36 15-5 1v-3l16-15 15-14 11-10h2v-2l7-6h2v-2h2v-2l7-5 5-6 10-8 7-7 8-7 10-9 8-7h2v-2l9-7z" fill="#4F38B1"/>
<path transform="translate(377,692)" d="m0 0h8l6 4 5 9 2 6v22l-5 20-6 14-7 10-8 9-10 5h-8l-5-2-6-7-3-11v-17l3-18 7-19 6-10 7-8 10-6z" fill="#4F38B2"/>
<path transform="translate(697,692)" d="m0 0 8 1 5 4 5 9 2 10v9l-2 15-5 16-5 11-6 10-6 7-10 6-5 1h-7l-6-4-4-6-3-14v-10l2-14 4-15 8-17 7-9 7-6 6-3z" fill="#4F38B2"/>
<path transform="translate(1100,517)" d="m0 0 4 2 13 13 7 8 12 14 10 13 9 13 12 19 9 16 13 24 9 9 9 11 4 6-1 2-3-2h-3v2l-9 6h-3l-2 4-1 3-11-14-12-9-17-7v-1l9-2v-2l8-5 11-4 5-2-2-6-15-28-14-22-7-10-9 3-16 8-8 5-11 6-14 6-1 2h-2v2l-24 14h-2l-1 2-2-5-1-10 7-6h2l2-4 9-11 10-12 4-6 5-5 11-13 6-8 2-5-7-9-4-3z" fill="#4F38B2"/>
<path transform="translate(1599,1486)" d="m0 0h1v48l-24 4-25 4-22 3-80 12-11 1v-2l19-7 16-8 25-11 20-9 16-7 8-4 34-15z" fill="#4F38B1"/>
<path transform="translate(959,597)" d="m0 0 15 1 11 4 7 6 5 9 2 9v15l-5 16-7 12-9 8-14 7-10 2h-18l2-11 11-41 9-36z" fill="#6241EE"/>
<path transform="translate(1599,650)" d="m0 0h1v52l-16 2-40 8-12 2h-6l-3-3 2-11v-18l2-4 20-8 12-4 11-5 13-5 12-5z" fill="#6241EE"/>
<path transform="translate(163,711)" d="m0 0h51l-2 11-8 30h-2l-2 9-17 7-26 13h-3l-1 2-5 1-2-6 2-11 12-46 2-9z" fill="#6241EE"/>
<path transform="translate(1034,779)" d="m0 0 3 1 5 16 6 11 7 9 5 5v3h2l-1 5-26 16-1 2h-2l1 6 2 2h-12l-7-4-5-6-2-8 1-27 1-30h1l1 11 6-4 5-3z" fill="#6241EE"/>
<path transform="translate(1047,703)" d="m0 0 1 4-7 17-4 18-1 9v30l-2-1-14 7-3 3h-2l-2 4h-1l-2-20-3-16-6-15-6-11-1-3 11-4 22-12 17-8h3z" fill="#4F38B2"/>
<path transform="translate(240,605)" d="m0 0h1l-1 9-13 50-1 2-51-1 4-17 3-9 3 1 7-3 19-12 15-10 8-5 5-3z" fill="#4F38B2"/>
<path transform="translate(912,1130)" d="m0 0 3 1-32 16-10 4-14 6-14 7-13 5-7 5-16 8-4 3-10 4-11 6-2 1h-15l-18-3-4-3h3l-1-6 27-9 35-11 63-21z" fill="#4F38B1"/>
<path transform="translate(1455,688)" d="m0 0h12l7 6 1 3v8l-5 12-8 9-14 9-16 6-10 2h-9l-1-2 5-13 8-15 9-11 9-8 8-5z" fill="#6241EE"/>
<path transform="translate(779,946)" d="m0 0h1v77l-9 2-10 2-4-7-8-7-7-4 2-4 5-5 5-8 3-12-1-10-1-6 2-5 5-2v-2l7-5z" fill="#6342EF"/>
<path transform="translate(697,692)" d="m0 0 8 1 5 4 5 9 2 10v9l-2-3-9 6-15 7-10 6-16 8h-3v2h-2l-1 2 1-10 4-15 8-17 7-9 7-6 6-3z" fill="#6241EE"/>
<path transform="translate(1326,921)" d="m0 0 4 1-2 4-11 6-15 10-22 13-15 10-15 8-11 6-9 7-1 2-4 1-1-4 10-23 2-5h2l4-7 7-2 18-6 19-7 13-4 14-6z" fill="#6241EE"/>
<path transform="translate(564,1156)" d="m0 0 4 2 32 21-3 1-7 1-3 2-14 4-10 4-13 4-11 4-24 8-20 7-3-1 11-8 31-20 26-18 6-4 1-4-3-1z" fill="#4F38B1"/>
<path transform="translate(1123,689)" d="m0 0h10l5 3 6 10 1 6-4 1-17 10-19 12-9 5-3 2-2 3v-7l6-18 7-13 7-8 8-5z" fill="#4F38B2"/>
<path transform="translate(694,1024)" d="m0 0h23l7 3 3 3 1 2v11l-5 6-7 3h-22l-1-1v-26z" fill="#6342EF"/>
<path transform="translate(925,727)" d="m0 0 6 2 9 7 9 10 2 4-3 2-2 4-14 7-7 3-5 2h-4l-1-5 9-35z" fill="#6241ED"/>
<path transform="translate(1455,688)" d="m0 0h12l7 6v5l-6 4-10 5-3-1v2l-16 7-9 1-5 3h-2v3l-3 1 2-6 7-10 9-10 10-7z" fill="#4F38B3"/>
<path transform="translate(694,972)" d="m0 0h13l10 2 5 5v9l-4 6-7 3-17 1-1-1v-24z" fill="#5139B7"/>
<path transform="translate(1322,869)" d="m0 0h5l1 1v25h-4l-3-13-1 11-6 2-2-1v-11l2-3 5-2 1-7z" fill="#FEFEFE"/>
<path transform="translate(816,975)" d="m0 0h20v1l-6 1 1 2h-2v3l-6 3-3 5-2 4 41 1v1h-43z" fill="#6342EF"/>
<path transform="translate(1281,868)" d="m0 0h16l4 1v3l-9 2v21h-5v-21l-7-1z" fill="#FEFEFE"/>
<path transform="translate(1445,731)" d="m0 0 6 1-3 3-16 6-10 2h-9l-1-2 3-7h2v2h8 3l2-1h7z" fill="#5038B6"/>
<path transform="translate(1303,869)" d="m0 0 7 1 1 1v12l-3 11-5 1v-12l-1-13z" fill="#FEFEFE"/>
<path transform="translate(737,633)" d="m0 0h1l-1 8-3 11h-1l-1-6-6 4h-2v3h-2l-2-6 9-7 6-1z" fill="#4F38B3"/>
<path transform="translate(1145,569)" d="m0 0 4 2 15 23 11 19 9 17h-3l-16-30-14-22z" fill="#533ABE"/>
<path transform="translate(1173,614)" d="m0 0 3 1 8 16-3-1z" fill="#5139B9"/>
</svg>
